<svg xmlns="http://www.w3.org/2000/svg" width="225" height="242" viewBox="0 0 225 242">
  <path d="M 167.00 230.50 L 157.50 230.00 L 113.00 186.50 L 68.50 230.00 L 57.50 230.00 L 56.50 223.00 L 57.50 208.00 L 60.50 199.00 L 64.50 193.00 L 65.00 188.50 L 45.00 184.50 L 32.00 177.50 L 22.00 167.50 L 15.50 156.00 L 12.50 147.00 L 10.50 135.00 L 10.50 119.00 L 12.50 109.00 L 18.50 93.00 L 26.00 82.50 L 39.00 71.50 L 48.00 66.50 L 60.00 62.50 L 72.00 60.50 L 84.00 60.50 L 99.00 63.50 L 100.00 67.50 L 94.00 71.50 L 83.00 68.50 L 75.00 68.50 L 62.00 73.50 L 53.00 82.50 L 50.00 87.50 L 45.50 99.00 L 43.50 109.00 L 43.50 137.00 L 45.50 147.00 L 50.50 160.00 L 59.00 171.50 L 71.00 177.50 L 78.50 177.00 L 123.50 132.00 L 125.50 128.00 L 127.50 118.00 L 127.50 82.00 L 125.00 76.50 L 121.00 72.50 L 121.00 69.50 L 154.00 52.50 L 158.50 52.00 L 158.50 124.00 L 152.50 142.00 L 140.00 157.50 L 136.50 160.00 L 135.50 163.00 L 151.00 179.50 L 159.00 179.50 L 167.00 175.50 L 172.50 171.00 L 176.50 165.00 L 181.50 150.00 L 181.50 18.00 L 179.50 12.00 L 180.00 10.50 L 184.00 10.50 L 195.00 13.50 L 201.00 17.50 L 209.50 27.00 L 213.50 37.00 L 214.50 44.00 L 214.50 136.00 L 213.50 147.00 L 209.50 159.00 L 199.50 173.00 L 194.00 177.50 L 181.00 184.50 L 161.00 188.50 L 160.50 192.00 L 166.50 202.00 L 168.50 210.00 L 169.50 219.00 L 168.50 228.00 L 167.00 230.50 Z" fill="#143152" fill-rule="evenodd"/>
  <path d="M 94.00 155.50 L 91.00 155.50 L 82.50 147.00 L 77.50 140.00 L 77.50 135.00 L 84.50 125.00 L 94.00 115.50 L 96.00 115.50 L 97.50 124.00 L 101.50 130.00 L 109.50 137.00 L 109.50 140.00 L 94.00 155.50 Z" fill="#143152" fill-rule="evenodd"/>
  <path d="M 62.00 45.50 L 57.00 44.50 L 43.50 31.00 L 44.50 23.00 L 58.00 10.50 L 64.00 10.50 L 78.50 25.00 L 78.50 30.00 L 76.50 33.00 L 65.00 44.50 L 62.00 45.50 Z" fill="#cd6930" fill-rule="evenodd"/>
  <path d="M 101.00 45.50 L 96.00 44.50 L 82.50 31.00 L 82.50 24.00 L 97.00 10.50 L 104.00 11.50 L 116.50 25.00 L 116.50 31.00 L 101.00 45.50 Z" fill="#cd6930" fill-rule="evenodd"/>
  <path d="M 77.00 135.50 L 74.50 135.00 L 70.50 122.00 L 70.50 107.00 L 72.50 99.00 L 74.50 94.00 L 86.50 78.00 L 93.00 71.50 L 102.00 65.50 L 105.00 65.50 L 115.00 71.50 L 125.50 82.00 L 125.50 85.00 L 84.50 125.00 L 77.00 135.50 Z" fill="#cd6930" fill-rule="evenodd"/>
</svg>